<svg width="20" height="20" viewBox="0 0 20 20" fill="none" xmlns="http://www.w3.org/2000/svg">
<path fill-rule="evenodd" clip-rule="evenodd" d="M14.6667 4V2C14.6667 0.89543 13.7712 0 12.6667 0H7.33333C6.22876 0 5.33333 0.89543 5.33333 2V4H0V5.33333H1.33333V18C1.33333 19.1046 2.22876 20 3.33333 20H16.6667C17.7712 20 18.6667 19.1046 18.6667 18V5.33333H20V4H14.6667ZM6.66667 2C6.66667 1.63181 6.96514 1.33333 7.33333 1.33333H12.6667C13.0349 1.33333 13.3333 1.63181 13.3333 2V4H6.66667V2ZM9.33333 9.33333V16H10.6667V9.33333H9.33333ZM5.33333 16V12H6.66667V16H5.33333ZM13.3333 12V16H14.6667V12H13.3333Z" fill="#5B6786"/>
</svg>
